<?xml version="1.0" encoding="UTF-8" standalone="no"?><!DOCTYPE svg PUBLIC "-//W3C//DTD SVG 1.1//EN" "http://www.w3.org/Graphics/SVG/1.1/DTD/svg11.dtd"><svg width="100%" height="100%" viewBox="0 0 1563 1563" version="1.1" xmlns="http://www.w3.org/2000/svg" xmlns:xlink="http://www.w3.org/1999/xlink" xml:space="preserve" xmlns:serif="http://www.serif.com/" style="fill-rule:evenodd;clip-rule:evenodd;stroke-linecap:round;stroke-linejoin:round;stroke-miterlimit:1.5;"><g><circle cx="781.25" cy="781.25" r="781.25" style="fill:#fff;"/><path d="M781.25,-0c431.184,-0 781.25,350.066 781.25,781.25c-0,431.184 -350.066,781.25 -781.25,781.25c-431.184,-0 -781.25,-350.066 -781.25,-781.25c-0,-431.184 350.066,-781.25 781.25,-781.25Zm-0,157.281c344.378,0 623.969,279.591 623.969,623.969c-0,344.378 -279.591,623.969 -623.969,623.969c-344.378,-0 -623.969,-279.591 -623.969,-623.969c0,-344.378 279.591,-623.969 623.969,-623.969Z" style="fill:#101758;"/><g><path d="M87.251,774.23c0,-0 18.052,-316.913 170.491,-465.34c152.439,-148.428 272.786,-184.532 477.375,-196.567c204.589,-12.034 455.311,82.237 529.525,156.451c74.214,74.214 210.607,340.982 232.67,415.196c22.064,74.214 -30.086,94.271 -74.213,96.277c-44.128,2.006 -342.988,0 -369.063,-4.011c-26.075,-4.012 32.092,-162.468 -118.341,-200.578c-150.433,-38.11 -216.624,-102.295 -304.878,-30.087c-88.254,72.208 -128.37,160.462 -130.376,198.572c-2.006,38.11 -110.317,28.081 -204.589,34.098c-94.271,6.018 -208.601,-4.011 -208.601,-4.011Z" style="fill:#d83d3d;"/><path d="M781.25,-0c431.184,-0 781.25,350.066 781.25,781.25c-0,431.184 -350.066,781.25 -781.25,781.25c-431.184,-0 -781.25,-350.066 -781.25,-781.25c-0,-431.184 350.066,-781.25 781.25,-781.25Zm-0,157.281c344.378,0 623.969,279.591 623.969,623.969c-0,344.378 -279.591,623.969 -623.969,623.969c-344.378,-0 -623.969,-279.591 -623.969,-623.969c0,-344.378 279.591,-623.969 623.969,-623.969Z" style="fill:#101758;"/><circle cx="781.25" cy="781.25" r="309.391" style="fill:#fff;"/><path d="M781.25,471.859c170.758,-0 309.391,138.633 309.391,309.391c0,170.758 -138.633,309.391 -309.391,309.391c-170.758,0 -309.391,-138.633 -309.391,-309.391c-0,-170.758 138.633,-309.391 309.391,-309.391Zm0,98.365c116.468,0 211.026,94.558 211.026,211.026c-0,116.468 -94.558,211.026 -211.026,211.026c-116.468,-0 -211.026,-94.558 -211.026,-211.026c0,-116.468 94.558,-211.026 211.026,-211.026Z" style="fill:#101758;"/><path d="M79.228,776.236l431.242,-0" style="fill:none;stroke:#101758;stroke-width:98.37px;"/><path d="M79.228,776.236l431.242,-0" style="fill:none;stroke:#101758;stroke-width:98.37px;"/><path d="M1052.03,776.236l431.242,-0" style="fill:none;stroke:#101758;stroke-width:98.37px;"/></g></g></svg>